<svg xmlns="http://www.w3.org/2000/svg" viewBox="0 0 1200 600" role="img" aria-label="Stylized world map">
  <defs>
    <linearGradient id="ocean" x1="0" y1="0" x2="0" y2="1">
      <stop offset="0%" stop-color="#dff2ff"/>
      <stop offset="100%" stop-color="#cde7fa"/>
    </linearGradient>
  </defs>
  <rect width="1200" height="600" fill="url(#ocean)"/>
  <g stroke="#ffffff" stroke-opacity="0.35" stroke-width="1">
    <line x1="0" y1="100" x2="1200" y2="100"/>
    <line x1="0" y1="200" x2="1200" y2="200"/>
    <line x1="0" y1="300" x2="1200" y2="300"/>
    <line x1="0" y1="400" x2="1200" y2="400"/>
    <line x1="0" y1="500" x2="1200" y2="500"/>
    <line x1="200" y1="0" x2="200" y2="600"/>
    <line x1="400" y1="0" x2="400" y2="600"/>
    <line x1="600" y1="0" x2="600" y2="600"/>
    <line x1="800" y1="0" x2="800" y2="600"/>
    <line x1="1000" y1="0" x2="1000" y2="600"/>
  </g>
  <g fill="#7fb08b">
    <path d="M126 140l62-40 95-8 80 22 42 48-6 35-65 20-53-8-40 25-54 6-56-18-32-40z"/>
    <path d="M220 252l48 20 70 8 56 18 12 42-22 38-65 10-58-18-45-52z"/>
    <path d="M448 122l52-25 100-16 115 10 110 40 90 25 68 2 62 30-12 18-50 12-55-8-65 10-52 16-42 42-25 8-40-25-62-2-42-28-45 18-88 8-45-16-12-28 36-25 0-22z"/>
    <path d="M632 258l45 8 56 30 5 62-22 88-36 42-42-2-26-34-8-72 10-62z"/>
    <path d="M782 350l40-10 35 15 30 0 45 28 35 0 28 18-8 40-45 22-45-12-20-30-28-10-35 2-25-22z"/>
    <path d="M970 452l48-12 30 20 50 8 35 22-20 20-45 0-30-10-24 10-22-10z"/>
    <path d="M1072 220l66-10 45 20 0 35-30 32-42-8-35-25z"/>
    <path d="M520 492l40-20 36 14 6 30-22 32-30 10-28-8-20-30z"/>
  </g>
</svg>
